<?xml version="1.0" encoding="utf-8"?>
<!-- Generator: Adobe Illustrator 24.1.2, SVG Export Plug-In . SVG Version: 6.00 Build 0)  -->
<svg version="1.1" id="Capa_1" xmlns="http://www.w3.org/2000/svg" xmlns:xlink="http://www.w3.org/1999/xlink" x="0px" y="0px"
	 viewBox="0 0 392 392" style="enable-background:new 0 0 392 392;" xml:space="preserve">
<style type="text/css">
	.st0{fill:#FFFFFF;}
</style>
<g>
	<g>
		<path class="st0" d="M357.4,237.2L313.8,252l-44.4-25.6l57.6-19.6c4.4-1.6,7.2-6,6.8-10.8c0.4-4.8-2.4-9.2-6.8-10.8l-57.6-19.6
			l44.4-25.6l43.6,14.8c5.2,2,11.2-1.2,12.8-6.4c2-5.2-1.2-11.2-6.4-12.8l-26.8-9.2l25.2-14.4c4.8-2.8,6.4-9.2,3.6-14
			s-9.2-6.4-14-3.6l-25.2,14.4l5.6-27.6c1.2-5.6-2.4-10.8-8-12s-10.8,2.4-12,8l-8.8,45.2L259,148l11.6-59.6c0.8-4.8-1.6-9.6-6-11.2
			c-3.6-2.8-8.8-2.4-12.4,0.8l-45.6,40v-15.2V66.4L241.4,36c4.4-3.6,4.8-10,0.8-14.4c-3.6-4.4-10-4.8-14.4-0.8l-21.2,18.4V10.4
			c0-5.6-4.4-10.4-10.4-10.4c-5.6,0-10.4,4.4-10.4,10.4v28.8l-21.2-18.4c-4.4-3.6-10.8-3.2-14.4,0.8C146.6,26,147,32.4,151,36
			l34.8,30.4v36.4V118l-45.6-40.4c-3.6-3.2-8.8-3.2-12.4-0.8c-4.4,2-6.8,6.4-6,11.2l11.6,60L89,122.4l-8.8-45.2
			c-1.2-5.6-6.4-9.2-12-8s-9.2,6.4-8,12l5.6,27.6L40.2,94c-4.8-2.8-11.2-1.2-14,3.6c-2.8,4.8-1.2,11.2,3.6,14L55,126l-26.8,9.2
			c-5.2,2-8.4,7.6-6.4,12.8s7.6,8.4,12.8,6.4l44-14.4l44.4,25.6l-57.6,19.6c-4.4,1.6-7.2,6-6.8,10.8c-0.4,4.8,2.4,9.2,6.8,10.8
			l57.6,19.6l-6,3.6l-38.4,22L35,237.2c-5.2-2-11.2,1.2-12.8,6.4c-1.6,5.2,1.2,11.2,6.4,12.8l26.8,9.2L30.2,280
			c-4.8,2.8-6.4,9.2-3.6,14s9.2,6.4,14,3.6l25.2-14.4l-5.6,27.6c-1.2,5.6,2.4,10.8,8,12s10.8-2.4,12-8l8.8-45.2l44.4-25.6
			l-11.6,59.6c-0.8,4.8,1.6,9.6,6,11.2c3.6,2.8,8.8,2.4,12.4-0.8l45.6-40v51.6L151,356c-4.4,3.6-4.8,10-0.8,14.4
			c3.6,4.4,10,4.8,14.4,0.8l21.2-18.4v28.8c0,5.6,4.4,10.4,10.4,10.4c5.6,0,10.4-4.4,10.4-10.4v-28.8l21.2,18.4
			c4.4,3.6,10.8,3.2,14.4-0.8c3.6-4.4,3.2-10.8-0.8-14.4l-34.8-30.4v-51.2l45.6,40c3.6,3.2,8.8,3.2,12.4,0.8c4.4-2,6.8-6.4,6-11.2
			L259,244l44.4,25.6l8.8,45.2c1.2,5.6,6.4,9.2,12,8s9.2-6.4,8-12l-5.6-27.6l25.2,14.4c4.8,2.8,11.2,1.2,14-3.6s1.2-11.2-3.6-14
			L337,265.6l26.8-9.2c5.2-2,8.4-7.6,6.4-12.8S362.6,235.2,357.4,237.2z M97.8,196l48.8-16.8l29.2,16.8l-29.2,16.8L97.8,196z
			 M185.8,247.2l-38.8,34l10-50.8l28.8-16.8V247.2z M185.8,178.4L157,161.6l-10-50.8l38.8,34V178.4z M206.6,144.8l38.8-34l-10,50.8
			l-28.8,16.8V144.8z M206.6,247.2v-33.6l28.8,16.8l10,50.8L206.6,247.2z M245.8,212.8L216.6,196l29.2-16.8l48.8,16.8L245.8,212.8z"
			/>
	</g>
</g>
</svg>
